<svg width="293" height="179" viewBox="0 0 293 179" fill="none" xmlns="http://www.w3.org/2000/svg">
<rect width="293" height="179" rx="10" fill="#523293"/>
<path d="M23.6172 13.0003L12.4575 21.0044L22.1682 23.955L33.4534 15.1229L23.6172 13.0003ZM35.0727 16.1523L23.104 25.2754L28.2819 38.5708L29.1472 37.8148L29.576 36.2218C29.2857 36.0326 29.0369 35.7249 28.8698 35.3485C28.7027 34.9721 28.6272 34.5491 28.6554 34.1479C28.6832 33.7584 28.8072 33.4113 29.0086 33.1599C29.21 32.9085 29.4776 32.7666 29.7704 32.7558C29.8915 32.7514 30.015 32.7694 30.1375 32.8095C30.245 32.8454 30.351 32.898 30.4531 32.9661L31.2581 29.9765C31.2679 29.9406 31.2798 29.9054 31.2939 29.871C31.2958 29.8667 31.2978 29.8623 31.2998 29.858C31.3096 29.8344 31.3204 29.8113 31.3322 29.7886C31.3352 29.7834 31.3383 29.7782 31.3414 29.773C31.353 29.7514 31.3655 29.7303 31.3789 29.7097C31.3957 29.6843 31.4138 29.6599 31.433 29.6363C31.4352 29.6338 31.4375 29.6313 31.4397 29.6288C31.457 29.608 31.4753 29.5879 31.4945 29.5686C31.5154 29.5475 31.5374 29.5274 31.5604 29.5085C31.5605 29.5084 31.5606 29.5083 31.5608 29.5083C31.5759 29.4962 31.5915 29.4846 31.6074 29.4736C31.6163 29.4668 31.6253 29.4601 31.6344 29.4536C31.651 29.4429 31.668 29.4328 31.6853 29.4232C31.6943 29.4177 31.7034 29.4124 31.7126 29.4073C31.7273 29.3998 31.7422 29.3928 31.7573 29.3862C31.77 29.3798 31.7828 29.3738 31.7958 29.3681C31.8104 29.3626 31.8252 29.3574 31.8401 29.3527C31.8538 29.3475 31.8677 29.3427 31.8817 29.3382C31.8952 29.3345 31.9089 29.3311 31.9226 29.328C31.9384 29.3238 31.9543 29.3199 31.9703 29.3165C31.9874 29.3136 32.0047 29.3113 32.022 29.3094C32.0345 29.3074 32.047 29.3057 32.0595 29.3043C32.0598 29.3043 32.0602 29.3043 32.0605 29.3043C32.0608 29.3042 32.0612 29.3041 32.0615 29.304L35.4706 29.0126C35.5487 28.7214 35.687 28.4759 35.8711 28.3015C36.0552 28.1272 36.2784 28.0304 36.5176 28.0211C36.6387 28.0167 36.7623 28.0347 36.8848 28.0749C37.2153 28.1841 37.5228 28.4484 37.7493 28.8179L39.0717 28.705L35.0728 16.1519L35.0727 16.1523ZM23.4603 16.9237C23.8893 16.9326 24.2528 17.0257 24.4893 17.1871C24.7258 17.3486 24.8207 17.5684 24.7578 17.8094C24.6857 18.0865 24.4108 18.3703 23.9936 18.5985C23.5765 18.8266 23.0513 18.9805 22.5336 19.0262C22.2772 19.0488 22.0303 19.0442 21.8071 19.0126C21.584 18.981 21.3888 18.9231 21.2328 18.8421C21.0768 18.7611 20.963 18.6586 20.8979 18.5405C20.8329 18.4224 20.8178 18.291 20.8536 18.1539C20.8892 18.0167 20.9751 17.8764 21.1062 17.741C21.2373 17.6056 21.4111 17.4777 21.6176 17.3647C21.8242 17.2517 22.0594 17.1558 22.31 17.0824C22.5605 17.009 22.8214 16.9595 23.0778 16.9369C23.208 16.9255 23.3361 16.9211 23.4601 16.9237L23.4603 16.9237ZM33.6225 19.3086C33.7435 19.3042 33.867 19.3222 33.9895 19.3623C34.3488 19.4799 34.6801 19.7804 34.9104 20.1977C35.1407 20.6149 35.2511 21.1148 35.2175 21.5873C35.2008 21.8213 35.1493 22.0415 35.0658 22.2354C34.9822 22.4293 34.8684 22.593 34.7308 22.7173C34.5932 22.8416 34.4345 22.9239 34.2637 22.9597C34.0929 22.9954 33.9134 22.9838 33.7355 22.9256C33.5575 22.8674 33.3846 22.7636 33.2266 22.6203C33.0686 22.477 32.9285 22.2969 32.8145 22.0903C32.7004 21.8837 32.6146 21.6546 32.5619 21.4162C32.5092 21.1777 32.4906 20.9346 32.5073 20.7006C32.535 20.3111 32.6591 19.964 32.8605 19.7126C33.0619 19.4612 33.3296 19.3193 33.6225 19.3086ZM12.0003 22.7732L16.7647 34.3468L26.3191 38.4418L21.6565 25.7075L12.0003 22.7731L12.0003 22.7732ZM26.9942 24.5408C27.1154 24.5363 27.2389 24.5543 27.3615 24.5943C27.7208 24.712 28.052 25.0125 28.2822 25.4298C28.5125 25.847 28.6229 26.3468 28.5893 26.8193C28.5726 27.0533 28.5211 27.2735 28.4376 27.4674C28.3541 27.6613 28.2403 27.8251 28.1027 27.9493C27.9651 28.0736 27.8063 28.156 27.6356 28.1917C27.4648 28.2275 27.2853 28.2159 27.1074 28.1577C26.748 28.0401 26.4168 27.7396 26.1865 27.3223C25.9562 26.9051 25.8457 26.4052 25.8794 25.9327C25.9071 25.5432 26.0311 25.1962 26.2325 24.9448C26.4338 24.6934 26.7014 24.5516 26.9942 24.5408ZM19.3776 25.8608C19.6289 25.8471 19.944 25.996 20.2616 26.2785C20.5793 26.5611 20.8768 26.9572 21.0966 27.3899C21.2131 27.6191 21.3043 27.852 21.3652 28.0754C21.426 28.2987 21.4553 28.5081 21.4513 28.6916C21.4473 28.8751 21.4101 29.0291 21.3418 29.1448C21.2736 29.2605 21.1756 29.3356 21.0535 29.3659C20.8069 29.427 20.477 29.3017 20.1364 29.0176C19.7958 28.7335 19.4724 28.3138 19.2374 27.8509C19.0024 27.3882 18.8749 26.9202 18.883 26.5497C18.891 26.1793 19.034 25.9367 19.2804 25.8754C19.3114 25.8676 19.3438 25.8627 19.3776 25.8608ZM46.0827 29.9385L34.7168 30.9098L46.2509 39.0152L57.7685 37.2956L46.0827 29.9382L46.0827 29.9385ZM16.7249 30.9179C16.9762 30.9041 17.2913 31.0529 17.609 31.3355C17.9267 31.618 18.2244 32.0142 18.4442 32.447C18.6793 32.9098 18.8068 33.378 18.7988 33.7486C18.7907 34.1191 18.6476 34.3617 18.4011 34.4229C18.1545 34.484 17.8246 34.3587 17.484 34.0746C17.1434 33.7905 16.82 33.3709 16.5849 32.908C16.3499 32.4452 16.2223 31.977 16.2304 31.6065C16.2385 31.236 16.3815 30.9935 16.628 30.9323C16.659 30.9246 16.6915 30.9199 16.7253 30.9181L16.7249 30.9179ZM32.6813 31.7101L28.4697 47.3467L40.1919 57.4326L44.9721 40.3476L32.6813 31.7103L32.6813 31.7101ZM45.5564 32.8426C45.871 32.8485 46.2172 32.8957 46.5651 32.9802C46.9131 33.0647 47.2521 33.184 47.553 33.3277C47.796 33.4437 48.0086 33.5732 48.1789 33.7086C48.3491 33.844 48.4736 33.9827 48.5452 34.1168C48.6168 34.251 48.6342 34.3779 48.5963 34.4903C48.5584 34.6028 48.4659 34.6986 48.3243 34.7722C48.1826 34.8459 47.9945 34.896 47.7707 34.9196C47.5469 34.9433 47.2917 34.94 47.0197 34.9101C46.7478 34.8801 46.4644 34.824 46.1857 34.745C45.907 34.666 45.6385 34.5656 45.3955 34.4495C44.9049 34.2152 44.5479 33.9313 44.4032 33.6604C44.2585 33.3895 44.338 33.1538 44.624 33.005C44.8414 32.892 45.1663 32.8354 45.5563 32.8427L45.5564 32.8426ZM59 38.9574L46.7441 40.7873L41.9967 57.7552L53.7879 54.5333L59 38.9574ZM40.5667 40.0528C40.7099 40.0529 40.8544 40.0851 40.9964 40.1484C41.2026 40.2405 41.3999 40.3967 41.5772 40.6082C41.7544 40.8196 41.9079 41.0822 42.0291 41.3809C42.1503 41.6796 42.2368 42.0086 42.2835 42.3491C42.3302 42.6895 42.3364 43.0348 42.3015 43.3652C42.2311 44.0324 41.9982 44.5984 41.654 44.9387C41.3097 45.279 40.8823 45.3657 40.4659 45.1798C40.2596 45.0878 40.0623 44.9316 39.885 44.7201C39.7078 44.5086 39.5542 44.246 39.433 43.9473C39.3118 43.6486 39.2254 43.3196 39.1786 42.9792C39.1319 42.6387 39.1258 42.2934 39.1606 41.963C39.2186 41.4131 39.3876 40.9286 39.6415 40.5836C39.8954 40.2386 40.2204 40.0522 40.5667 40.0528ZM56.1893 41.2327C56.5201 41.223 56.7943 41.3706 56.9672 41.6516C57.1704 41.9818 57.2186 42.4711 57.1011 43.0119C56.9837 43.5527 56.7103 44.1007 56.341 44.5352C55.9718 44.9698 55.537 45.2553 55.1322 45.3291C54.7275 45.4028 54.3859 45.2587 54.1828 44.9285C53.9796 44.5983 53.9314 44.109 54.0488 43.5682C54.1662 43.0275 54.4396 42.4795 54.8089 42.045C55.0186 41.7982 55.2517 41.5969 55.4907 41.4563C55.7298 41.3157 55.9686 41.2393 56.1894 41.2328L56.1893 41.2327ZM49.2243 42.3142C49.555 42.3045 49.8292 42.4521 50.0021 42.7331C50.2053 43.0633 50.2535 43.5526 50.136 44.0934C50.0186 44.6342 49.7452 45.1822 49.3759 45.6167C49.0067 46.0513 48.5718 46.3368 48.1671 46.4105C47.7623 46.4843 47.4208 46.3402 47.2177 46.0099C47.0145 45.6797 46.9664 45.1903 47.0838 44.6496C47.2013 44.1088 47.4747 43.5609 47.8439 43.1264C48.0537 42.8796 48.2868 42.6784 48.5258 42.5377C48.7648 42.3971 49.0036 42.3207 49.2244 42.3142L49.2243 42.3142ZM31.583 43.6636C31.7263 43.6638 31.8709 43.6961 32.0129 43.7595C32.2191 43.8515 32.4165 44.0077 32.5937 44.2192C32.7709 44.4307 32.9244 44.6933 33.0456 44.992C33.1668 45.2907 33.2532 45.6197 33.3 45.9601C33.3467 46.3006 33.3528 46.6459 33.318 46.9763C33.2831 47.3066 33.208 47.6156 33.0969 47.8856C32.9858 48.1557 32.8408 48.3813 32.6704 48.5499C32.4999 48.7184 32.3072 48.8264 32.1034 48.8678C31.8995 48.9091 31.6884 48.883 31.4822 48.7909C31.276 48.6989 31.0786 48.5427 30.9014 48.3312C30.7242 48.1197 30.5706 47.8571 30.4494 47.5584C30.3282 47.2597 30.2418 46.9307 30.1951 46.5903C30.1483 46.2498 30.1422 45.9045 30.177 45.5741C30.235 45.0242 30.4039 44.5397 30.6578 44.1946C30.9117 43.8495 31.2366 43.663 31.5829 43.6635L31.583 43.6636ZM53.1056 49.8365C53.4363 49.8268 53.7103 49.9744 53.8832 50.2553C54.0864 50.5855 54.1346 51.0748 54.0172 51.6156C53.8998 52.1564 53.6265 52.7043 53.2572 53.1389C52.888 53.5734 52.4531 53.8589 52.0484 53.9326C51.6436 54.0064 51.3021 53.8622 51.099 53.532C50.8958 53.2018 50.8476 52.7125 50.965 52.1717C51.0825 51.6309 51.3558 51.083 51.7251 50.6484C51.9348 50.4016 52.1679 50.2004 52.407 50.0598C52.646 49.9191 52.8848 49.8428 53.1056 49.8363L53.1056 49.8365ZM45.9747 51.8129C46.3054 51.8032 46.5795 51.9509 46.7523 52.2319C46.9555 52.5621 47.0037 53.0514 46.8864 53.5922C46.769 54.1329 46.4956 54.6809 46.1264 55.1155C45.9435 55.3306 45.7426 55.5114 45.5352 55.6476C45.3278 55.7838 45.1179 55.8727 44.9175 55.9091C44.717 55.9456 44.5301 55.929 44.3672 55.8602C44.2043 55.7915 44.0687 55.6719 43.9681 55.5083C43.7649 55.1781 43.7168 54.6888 43.8342 54.148C43.9517 53.6072 44.2251 53.0593 44.5943 52.6248C44.804 52.378 45.0371 52.1768 45.2762 52.0362C45.5152 51.8956 45.7541 51.8192 45.9748 51.8128L45.9747 51.8129Z" fill="white"/>
<path d="M146.5 153C142.604 153 139.445 149.842 139.445 145.944L139.445 33.0555C139.445 29.1595 142.604 26 146.5 26C150.398 26 153.556 29.1595 153.556 33.0555L153.556 145.944C153.556 149.842 150.398 153 146.5 153Z" fill="white"/>
<path d="M202.944 96.5556L90.0556 96.5556C86.1595 96.5556 83 93.3976 83 89.5001C83 85.604 86.1595 82.4445 90.0556 82.4445L202.944 82.4445C206.842 82.4445 210 85.604 210 89.5001C210 93.3976 206.842 96.5556 202.944 96.5556Z" fill="white"/>
</svg>
