<svg width="167" height="128" viewBox="0 0 167 128" fill="none" xmlns="http://www.w3.org/2000/svg">
<rect width="167" height="128" rx="20" fill="#FF0000"/>
<path d="M59.1454 18L35.9504 34.6323L56.1338 40.7636L79.5894 22.4108L59.1454 18ZM82.9552 24.55L58.0788 43.5075L68.841 71.135L70.6394 69.564L71.5308 66.2538C70.9273 65.8606 70.4101 65.2213 70.0628 64.4392C69.7155 63.6571 69.5586 62.7781 69.6173 61.9443C69.6749 61.1349 69.9328 60.4138 70.3513 59.8913C70.7698 59.3689 71.326 59.0739 71.9347 59.0516C72.1864 59.0424 72.443 59.08 72.6976 59.1633C72.9212 59.2378 73.1414 59.347 73.3536 59.4887L75.0268 53.2763C75.0471 53.2018 75.072 53.1286 75.1012 53.0571C75.1052 53.0481 75.1093 53.0391 75.1134 53.0301C75.1339 52.9811 75.1564 52.9329 75.1809 52.8858C75.1871 52.875 75.1934 52.8642 75.1998 52.8535C75.224 52.8086 75.25 52.7647 75.2778 52.7218C75.3127 52.6692 75.3503 52.6183 75.3903 52.5695C75.3949 52.5642 75.3996 52.559 75.4042 52.5539C75.4403 52.5105 75.4783 52.4687 75.518 52.4287C75.5616 52.3848 75.6073 52.3431 75.655 52.3037C75.6553 52.3036 75.6556 52.3034 75.6558 52.3033C75.6874 52.2783 75.7197 52.2542 75.7528 52.2312C75.7712 52.2171 75.7899 52.2032 75.8088 52.1897C75.8434 52.1675 75.8787 52.1464 75.9146 52.1265C75.9334 52.1151 75.9524 52.1041 75.9715 52.0934C76.002 52.078 76.033 52.0634 76.0643 52.0496C76.0906 52.0365 76.1173 52.024 76.1443 52.0121C76.1747 52.0006 76.2055 51.9899 76.2364 51.98C76.265 51.9693 76.2938 51.9593 76.3228 51.9499C76.351 51.9422 76.3794 51.9352 76.408 51.9288C76.4407 51.9199 76.4738 51.9119 76.507 51.9048C76.5427 51.8989 76.5785 51.894 76.6145 51.8901C76.6404 51.886 76.6664 51.8825 76.6924 51.8795C76.6931 51.8795 76.6939 51.8795 76.6946 51.8795C76.6953 51.8793 76.696 51.8791 76.6967 51.8789L83.7823 51.2735C83.9446 50.6684 84.232 50.1581 84.6146 49.7958C84.9973 49.4335 85.4613 49.2323 85.9584 49.2131C86.2102 49.2039 86.4669 49.2414 86.7216 49.3248C87.4086 49.5518 88.0476 50.1009 88.5186 50.8688L91.2672 50.6343L82.9554 24.5492L82.9552 24.55ZM58.8191 26.1528C59.7108 26.1714 60.4665 26.3648 60.958 26.7002C61.4495 27.0357 61.6467 27.4926 61.5161 27.9934C61.3661 28.569 60.7948 29.1588 59.9278 29.6329C59.0608 30.1071 57.9692 30.4268 56.893 30.5217C56.3601 30.5688 55.8471 30.5592 55.3832 30.4935C54.9193 30.4279 54.5137 30.3074 54.1894 30.1391C53.8652 29.9708 53.6287 29.7578 53.4934 29.5125C53.3582 29.2671 53.3268 28.9941 53.4012 28.709C53.4754 28.424 53.6538 28.1325 53.9263 27.8511C54.1988 27.5698 54.56 27.3041 54.9893 27.0693C55.4186 26.8344 55.9076 26.6351 56.4283 26.4825C56.949 26.33 57.4914 26.2273 58.0243 26.1802C58.2949 26.1565 58.561 26.1473 58.8187 26.1528H58.8191ZM79.9409 31.1086C80.1926 31.0994 80.4492 31.137 80.7037 31.2203C81.4506 31.4647 82.1391 32.0891 82.6178 32.9561C83.0964 33.8232 83.3261 34.8619 83.2561 35.8438C83.2215 36.33 83.1143 36.7876 82.9408 37.1905C82.7672 37.5934 82.5307 37.9337 82.2446 38.1919C81.9586 38.4501 81.6287 38.6213 81.2737 38.6955C80.9188 38.7698 80.5457 38.7457 80.1759 38.6246C79.806 38.5037 79.4466 38.2882 79.1181 37.9904C78.7897 37.6926 78.4986 37.3183 78.2616 36.889C78.0245 36.4597 77.8461 35.9837 77.7366 35.4882C77.627 34.9927 77.5884 34.4874 77.623 34.0012C77.6807 33.1917 77.9386 32.4706 78.3572 31.9482C78.7757 31.4258 79.3322 31.1309 79.9409 31.1086ZM35 38.3079L44.9028 62.3576L64.7614 70.867L55.0702 44.4052L35 38.3077V38.3079ZM66.1644 41.981C66.4162 41.9716 66.673 42.009 66.9277 42.0922C67.6745 42.3367 68.3629 42.9612 68.8415 43.8282C69.3201 44.6953 69.5496 45.7339 69.4797 46.7157C69.4451 47.2019 69.3379 47.6595 69.1644 48.0624C68.9908 48.4653 68.7543 48.8056 68.4683 49.0639C68.1823 49.3221 67.8524 49.4933 67.4974 49.5675C67.1425 49.6418 66.7695 49.6178 66.3996 49.4968C65.6527 49.2524 64.9642 48.628 64.4856 47.761C64.0069 46.8939 63.7773 45.8552 63.8472 44.8733C63.9049 44.064 64.1627 43.3429 64.5812 42.8205C64.9997 42.2981 65.5558 42.0034 66.1644 41.981ZM50.3336 44.7239C50.8559 44.6954 51.5107 45.0048 52.1709 45.5919C52.8312 46.1791 53.4497 47.0021 53.9065 47.9013C54.1485 48.3776 54.3382 48.8616 54.4647 49.3257C54.5911 49.7898 54.6519 50.2249 54.6436 50.6062C54.6353 50.9875 54.558 51.3075 54.4162 51.5479C54.2743 51.7884 54.0707 51.9445 53.817 52.0074C53.3044 52.1343 52.6187 51.8739 51.9108 51.2836C51.2029 50.6932 50.5307 49.8211 50.0421 48.8593C49.5537 47.8978 49.2887 46.9252 49.3055 46.1554C49.3222 45.3856 49.6193 44.8816 50.1315 44.7542C50.1959 44.738 50.2632 44.7279 50.3336 44.7239ZM105.839 53.1974L82.2155 55.2156L106.189 72.0587L130.128 68.4855L105.839 53.1968V53.1974ZM44.8202 55.2323C45.3425 55.2037 45.9974 55.5129 46.6577 56.1001C47.318 56.6872 47.9367 57.5104 48.3935 58.4097C48.8822 59.3715 49.1473 60.3444 49.1305 61.1144C49.1137 61.8845 48.8164 62.3885 48.304 62.5156C47.7914 62.6426 47.1058 62.3822 46.3979 61.7919C45.69 61.2015 45.0178 60.3295 44.5291 59.3677C44.0406 58.406 43.7755 57.4332 43.7923 56.6633C43.8091 55.8934 44.1064 55.3894 44.6187 55.2622C44.6832 55.2463 44.7507 55.2365 44.821 55.2327L44.8202 55.2323ZM77.9849 56.8787L69.2314 89.3712L93.5955 110.329L103.531 74.8273L77.9849 56.8792V56.8787ZM104.745 59.2322C105.399 59.2443 106.119 59.3425 106.842 59.5181C107.565 59.6937 108.27 59.9416 108.895 60.2401C109.4 60.4813 109.842 60.7502 110.196 61.0316C110.55 61.3129 110.809 61.6012 110.957 61.88C111.106 62.1587 111.142 62.4224 111.064 62.6561C110.985 62.8898 110.793 63.0888 110.498 63.2418C110.204 63.3949 109.813 63.499 109.348 63.5481C108.882 63.5973 108.352 63.5905 107.787 63.5283C107.222 63.466 106.633 63.3494 106.053 63.1852C105.474 63.021 104.916 62.8124 104.411 62.5713C103.391 62.0843 102.649 61.4945 102.349 60.9315C102.048 60.3686 102.213 59.8787 102.807 59.5696C103.259 59.3348 103.935 59.2173 104.745 59.2324L104.745 59.2322ZM132.687 71.9388L107.214 75.741L97.3468 111L121.854 104.305L132.687 71.9388ZM94.3744 74.2147C94.672 74.215 94.9724 74.2819 95.2675 74.4134C95.6961 74.6047 96.1063 74.9293 96.4747 75.3687C96.843 75.8082 97.1622 76.3538 97.4141 76.9745C97.666 77.5952 97.8457 78.2789 97.9428 78.9863C98.0399 79.6938 98.0527 80.4113 97.9803 81.0978C97.834 82.4842 97.3498 83.6603 96.6343 84.3675C95.9188 85.0746 95.0306 85.2548 94.1649 84.8685C93.7363 84.6773 93.3261 84.3527 92.9577 83.9132C92.5894 83.4738 92.2701 82.9282 92.0182 82.3074C91.7663 81.6867 91.5866 81.0031 91.4895 80.2956C91.3923 79.5881 91.3796 78.8706 91.452 78.184C91.5726 77.0414 91.9237 76.0346 92.4515 75.3177C92.9793 74.6008 93.6547 74.2134 94.3744 74.2147ZM126.845 76.6668C127.533 76.6464 128.103 76.9531 128.462 77.5371C128.885 78.2233 128.985 79.2401 128.741 80.3639C128.497 81.4876 127.928 82.6263 127.161 83.5293C126.393 84.4322 125.49 85.0255 124.648 85.1788C123.807 85.3321 123.097 85.0327 122.675 84.3465C122.253 83.6603 122.153 82.6435 122.397 81.5198C122.641 80.3961 123.209 79.2575 123.976 78.3545C124.412 77.8417 124.897 77.4236 125.394 77.1313C125.89 76.8391 126.387 76.6804 126.846 76.667L126.845 76.6668ZM112.369 78.914C113.056 78.8937 113.626 79.2005 113.986 79.7843C114.408 80.4706 114.508 81.4874 114.264 82.6111C114.02 83.7349 113.452 84.8735 112.684 85.7765C111.917 86.6794 111.013 87.2728 110.172 87.426C109.33 87.5792 108.621 87.2798 108.198 86.5935C107.776 85.9073 107.676 84.8905 107.92 83.7668C108.164 82.6431 108.733 81.5045 109.5 80.6016C109.936 80.0888 110.42 79.6707 110.917 79.3784C111.414 79.0862 111.91 78.9275 112.369 78.914H112.369ZM75.7022 81.7178C76 81.7182 76.3005 81.7852 76.5957 81.917C77.0244 82.1083 77.4345 82.4329 77.8028 82.8724C78.1711 83.3118 78.4903 83.8575 78.7422 84.4782C78.9941 85.0989 79.1737 85.7825 79.2708 86.49C79.368 87.1974 79.3807 87.9149 79.3083 88.6014C79.2359 89.2879 79.0797 89.9301 78.8488 90.4911C78.6178 91.0522 78.3166 91.5212 77.9623 91.8713C77.608 92.2215 77.2076 92.4459 76.7838 92.5319C76.3601 92.6178 75.9214 92.5636 75.4927 92.3723C75.0641 92.181 74.6539 91.8564 74.2856 91.4169C73.9173 90.9775 73.598 90.4318 73.3461 89.8111C73.0942 89.1904 72.9146 88.5068 72.8174 87.7993C72.7203 87.0918 72.7076 86.3743 72.78 85.6878C72.9005 84.5451 73.2515 83.5382 73.7792 82.8212C74.3069 82.1041 74.9823 81.7165 75.702 81.7176L75.7022 81.7178ZM120.436 94.5451C121.123 94.525 121.693 94.8317 122.052 95.4155C122.475 96.1016 122.575 97.1183 122.331 98.2421C122.087 99.3658 121.519 100.504 120.751 101.407C119.984 102.31 119.08 102.904 118.239 103.057C117.398 103.21 116.688 102.911 116.266 102.224C115.843 101.538 115.743 100.521 115.987 99.3976C116.231 98.2739 116.799 97.1353 117.567 96.2323C118.003 95.7194 118.487 95.3013 118.984 95.0091C119.481 94.7169 119.977 94.5581 120.436 94.5447V94.5451ZM105.615 98.6519C106.302 98.6318 106.872 98.9387 107.231 99.5226C107.654 100.209 107.754 101.226 107.51 102.349C107.266 103.473 106.698 104.612 105.93 105.515C105.55 105.962 105.133 106.337 104.701 106.62C104.27 106.903 103.834 107.088 103.418 107.164C103.001 107.24 102.612 107.205 102.274 107.062C101.935 106.919 101.653 106.671 101.444 106.331C101.022 105.645 100.922 104.628 101.166 103.504C101.41 102.381 101.978 101.242 102.746 100.339C103.182 99.8262 103.666 99.4081 104.163 99.1159C104.66 98.8237 105.156 98.6651 105.615 98.6517L105.615 98.6519Z" fill="white"/>
<path d="M136.868 47.7363C135.649 47.7363 134.661 46.7233 134.661 45.4731V9.26313C134.661 8.01343 135.649 7 136.868 7C138.088 7 139.076 8.01343 139.076 9.26313V45.4731C139.076 46.7233 138.088 47.7363 136.868 47.7363Z" fill="white"/>
<path d="M154.529 29.6313H119.208C117.989 29.6313 117 28.6183 117 27.3681C117 26.1184 117.989 25.105 119.208 25.105H154.529C155.748 25.105 156.736 26.1184 156.736 27.3681C156.736 28.6183 155.748 29.6313 154.529 29.6313Z" fill="white"/>
</svg>
