<svg width="84" height="51" viewBox="0 0 84 51" fill="none" xmlns="http://www.w3.org/2000/svg">
<rect width="84" height="51" rx="10" fill="#FF0000"/>
<path d="M33.264 9.0205L25.1043 15.0853L32.3513 17.1176L40.5918 10.4406L33.264 9.0205ZM41.8082 11.1757L33.065 18.0773L37.1026 27.8025L37.7333 27.2324L38.0278 26.0518C37.8097 25.9165 37.6205 25.6934 37.491 25.4184C37.3615 25.1434 37.2992 24.8326 37.3143 24.5364C37.3291 24.2489 37.416 23.9912 37.5616 23.8029C37.7073 23.6146 37.9037 23.506 38.1207 23.4938C38.2105 23.4887 38.3023 23.5002 38.3938 23.528C38.4741 23.5528 38.5535 23.59 38.6302 23.6388L39.1832 21.423C39.1899 21.3964 39.1982 21.3703 39.2082 21.3447C39.2095 21.3415 39.2109 21.3383 39.2123 21.3351C39.2193 21.3175 39.227 21.3003 39.2354 21.2834C39.2375 21.2795 39.2397 21.2756 39.2419 21.2718C39.2502 21.2557 39.2592 21.2399 39.2688 21.2245C39.2809 21.2056 39.2939 21.1873 39.3079 21.1697C39.3095 21.1678 39.3111 21.1659 39.3127 21.164C39.3253 21.1484 39.3385 21.1333 39.3524 21.1188C39.3677 21.103 39.3837 21.0878 39.4004 21.0735C39.4005 21.0735 39.4006 21.0734 39.4007 21.0734C39.4118 21.0643 39.4232 21.0555 39.4348 21.0471C39.4413 21.0419 39.4479 21.0369 39.4545 21.032C39.4667 21.0239 39.4791 21.0161 39.4918 21.0088C39.4984 21.0046 39.5051 21.0006 39.5119 20.9967C39.5227 20.991 39.5336 20.9856 39.5447 20.9805C39.554 20.9756 39.5634 20.971 39.573 20.9666C39.5838 20.9623 39.5947 20.9583 39.6056 20.9546C39.6157 20.9506 39.626 20.9468 39.6363 20.9433C39.6463 20.9403 39.6563 20.9377 39.6665 20.9352C39.6781 20.9318 39.6899 20.9287 39.7017 20.926C39.7144 20.9236 39.7271 20.9216 39.7399 20.92C39.7491 20.9184 39.7584 20.9169 39.7677 20.9157C39.7679 20.9157 39.7682 20.9157 39.7684 20.9157C39.7687 20.9156 39.7689 20.9155 39.7692 20.9154L42.2937 20.6505C42.3473 20.4347 42.4462 20.2516 42.5802 20.1204C42.7142 19.9891 42.8784 19.9145 43.0556 19.9041C43.1454 19.8991 43.2373 19.9106 43.3288 19.9384C43.5756 20.014 43.8076 20.2043 43.9811 20.4734L44.9604 20.3708L41.8083 11.1754L41.8082 11.1757ZM33.2056 11.9152C33.524 11.9154 33.7951 11.9787 33.9729 12.0942C34.1507 12.2098 34.2243 12.3704 34.1813 12.549C34.1318 12.7543 33.9321 12.9676 33.6261 13.1419C33.32 13.3163 32.9327 13.4375 32.5493 13.4788C32.3595 13.4992 32.1763 13.4994 32.0103 13.4794C31.8443 13.4594 31.6986 13.4196 31.5817 13.3621C31.4648 13.3047 31.3789 13.2308 31.3289 13.1447C31.2788 13.0587 31.2657 12.962 31.2902 12.8604C31.3147 12.7587 31.3763 12.654 31.4715 12.5523C31.5668 12.4505 31.6938 12.3537 31.8453 12.2674C31.9969 12.181 32.17 12.1069 32.3547 12.0491C32.5395 11.9912 32.7323 11.951 32.9222 11.9305C33.0186 11.9202 33.1135 11.915 33.2055 11.9152L33.2056 11.9152ZM40.7791 13.5238C40.8689 13.5188 40.9607 13.5303 41.0522 13.5581C41.3205 13.6395 41.5706 13.8561 41.7476 14.1603C41.9246 14.4646 42.014 14.8314 41.996 15.1803C41.9871 15.353 41.9521 15.5161 41.8931 15.6603C41.834 15.8044 41.752 15.9268 41.6518 16.0205C41.5515 16.1141 41.435 16.1771 41.3088 16.206C41.1827 16.2348 41.0494 16.2289 40.9165 16.1886C40.7836 16.1483 40.6538 16.0744 40.5345 15.9711C40.4152 15.8678 40.3086 15.737 40.2209 15.5864C40.1333 15.4358 40.0662 15.2682 40.0236 15.0932C39.981 14.9181 39.9636 14.7392 39.9725 14.5664C39.9873 14.2789 40.0742 14.0212 40.2199 13.8329C40.3656 13.6446 40.562 13.5361 40.7791 13.5238ZM24.7913 16.396L28.4968 24.858L35.6448 27.7363L31.9976 18.4171L24.7913 16.3959L24.7913 16.396ZM35.9398 17.4785C36.0296 17.4734 36.1215 17.4848 36.213 17.5126C36.4813 17.594 36.7314 17.8107 36.9084 18.1149C37.0854 18.4191 37.1747 18.786 37.1567 19.1348C37.1478 19.3075 37.1128 19.4706 37.0538 19.6148C36.9947 19.7589 36.9127 19.8813 36.8125 19.975C36.7122 20.0686 36.5957 20.1317 36.4696 20.1605C36.3434 20.1894 36.2101 20.1835 36.0773 20.1432C35.809 20.0618 35.5588 19.8452 35.3818 19.5409C35.2048 19.2367 35.1155 18.8698 35.1334 18.521C35.1482 18.2335 35.2351 17.9758 35.3808 17.7876C35.5264 17.5993 35.7228 17.4908 35.9398 17.4785ZM30.3094 18.5636C30.4956 18.5499 30.7315 18.655 30.9714 18.8586C31.2112 19.0622 31.4378 19.3498 31.6072 19.6656C31.697 19.8329 31.7681 20.0032 31.8166 20.167C31.865 20.3307 31.8898 20.4847 31.8895 20.62C31.8893 20.7553 31.864 20.8694 31.8151 20.9557C31.7662 21.042 31.6946 21.0988 31.6045 21.123C31.4225 21.1716 31.1759 21.0841 30.919 20.8796C30.6622 20.6752 30.4161 20.3706 30.2349 20.0328C30.0537 19.6952 29.9522 19.352 29.9527 19.0788C29.9532 18.8056 30.0557 18.6247 30.2375 18.5758C30.2604 18.5696 30.2844 18.5656 30.3094 18.5636ZM50.1793 21.177L41.7626 22.0601L50.4384 27.8658L58.9566 26.4288L50.1793 21.1767L50.1793 21.177ZM28.4166 22.3307C28.6028 22.3169 28.8387 22.4219 29.0785 22.6256C29.3184 22.8292 29.545 23.1168 29.7145 23.4327C29.8958 23.7704 29.9973 24.1137 29.9968 24.387C29.9963 24.6603 29.8937 24.8412 29.7118 24.89C29.5297 24.9386 29.2832 24.8511 29.0263 24.6467C28.7695 24.4423 28.5234 24.1377 28.3421 23.7999C28.1609 23.4622 28.0594 23.1189 28.0599 22.8457C28.0604 22.5724 28.1629 22.3915 28.3449 22.3428C28.3678 22.3367 28.3918 22.3327 28.4169 22.3309L28.4166 22.3307ZM40.2645 22.6801L37.3718 34.2693L46.2164 41.5322L49.5095 28.8669L40.2645 22.6802L40.2645 22.6801ZM49.8318 23.3256C50.0653 23.3253 50.3228 23.355 50.5822 23.4122C50.8415 23.4694 51.0948 23.5524 51.3201 23.6538C51.502 23.7358 51.6617 23.8281 51.79 23.9254C51.9183 24.0227 52.0127 24.1232 52.0678 24.221C52.1229 24.3188 52.1376 24.4121 52.1112 24.4956C52.0847 24.5791 52.0176 24.651 51.9136 24.7074C51.8096 24.7638 51.6708 24.8035 51.5052 24.8242C51.3395 24.8449 51.1501 24.8463 50.948 24.8282C50.7458 24.8101 50.5347 24.7729 50.3268 24.7188C50.1189 24.6646 49.9183 24.5946 49.7363 24.5126C49.3689 24.347 49.0999 24.143 48.9886 23.9455C48.8772 23.7479 48.9326 23.5729 49.1426 23.459C49.3022 23.3725 49.5424 23.3261 49.8318 23.3257L49.8318 23.3256ZM59.8946 27.6358L50.8305 29.165L47.56 41.7436L56.2589 39.1949L59.8946 27.6358ZM46.2373 28.7143C46.3435 28.7124 46.4512 28.7339 46.5574 28.7785C46.7117 28.8433 46.8605 28.9556 46.995 29.1089C47.1296 29.2622 47.2474 29.4535 47.3417 29.6719C47.4361 29.8904 47.5051 30.1316 47.5448 30.3819C47.5845 30.6322 47.5941 30.8867 47.5732 31.1307C47.5308 31.6236 47.3664 32.0443 47.1161 32.3002C46.8658 32.5562 46.55 32.6264 46.2383 32.4955C46.084 32.4306 45.9353 32.3184 45.8007 32.1651C45.6661 32.0118 45.5483 31.8205 45.454 31.6021C45.3596 31.3836 45.2906 31.1424 45.2509 30.8921C45.2112 30.6418 45.2016 30.3873 45.2225 30.1432C45.2574 29.737 45.3756 29.3773 45.5588 29.1193C45.7421 28.8612 45.9804 28.719 46.2373 28.7143ZM57.8434 29.3544C58.0886 29.3424 58.2942 29.4472 58.4266 29.6518C58.5822 29.8922 58.6252 30.2523 58.5461 30.6527C58.467 31.0531 58.2723 31.461 58.0048 31.7868C57.7373 32.1126 57.419 32.3295 57.1199 32.3898C56.8207 32.4501 56.5653 32.3489 56.4097 32.1085C56.2541 31.868 56.2111 31.508 56.2902 31.1077C56.3693 30.7073 56.564 30.2993 56.8314 29.9735C56.9833 29.7885 57.1533 29.6367 57.3285 29.5295C57.5038 29.4224 57.6798 29.3625 57.8434 29.3545L57.8434 29.3544ZM52.6928 30.2542C52.938 30.2421 53.1436 30.3469 53.276 30.5515C53.4316 30.7919 53.4746 31.152 53.3955 31.5524C53.3164 31.9528 53.1217 32.3607 52.8542 32.6865C52.5867 33.0123 52.2684 33.2292 51.9692 33.2895C51.6701 33.3498 51.4146 33.2486 51.259 33.0081C51.1035 32.7677 51.0605 32.4076 51.1396 32.0072C51.2188 31.6069 51.4135 31.1989 51.6809 30.8732C51.8328 30.6881 52.0028 30.5364 52.178 30.4292C52.3532 30.322 52.5292 30.2622 52.6929 30.2542L52.6928 30.2542ZM39.6267 31.5084C39.733 31.5064 39.8407 31.5281 39.947 31.5727C40.1013 31.6375 40.25 31.7498 40.3846 31.9031C40.5192 32.0564 40.637 32.2477 40.7313 32.4661C40.8256 32.6846 40.8946 32.9258 40.9343 33.1761C40.974 33.4264 40.9837 33.6809 40.9627 33.9249C40.9417 34.169 40.8906 34.3979 40.8122 34.5986C40.7337 34.7993 40.6296 34.9678 40.5056 35.0945C40.3817 35.2212 40.2403 35.3037 40.0897 35.3372C39.9391 35.3707 39.7821 35.3546 39.6278 35.2897C39.4735 35.2249 39.3248 35.1126 39.1902 34.9593C39.0556 34.806 38.9378 34.6147 38.8435 34.3963C38.7491 34.1779 38.6802 33.9366 38.6405 33.6863C38.6007 33.436 38.5911 33.1816 38.612 32.9375C38.6469 32.5312 38.765 32.1715 38.9482 31.9134C39.1315 31.6553 39.3698 31.513 39.6266 31.5083L39.6267 31.5084ZM55.6833 35.7425C55.9284 35.7305 56.1339 35.8353 56.2663 36.0398C56.4219 36.2802 56.4649 36.6402 56.3858 37.0406C56.3068 37.441 56.1121 37.849 55.8446 38.1748C55.5771 38.5005 55.2588 38.7174 54.9596 38.7777C54.6605 38.838 54.405 38.7368 54.2495 38.4963C54.0939 38.2559 54.0509 37.8958 54.13 37.4955C54.2091 37.0951 54.4038 36.6871 54.6712 36.3613C54.8232 36.1763 54.9931 36.0245 55.1683 35.9174C55.3436 35.8102 55.5196 35.7503 55.6832 35.7423L55.6833 35.7425ZM50.4229 37.3043C50.6681 37.2923 50.8736 37.3972 51.0059 37.6018C51.1616 37.8422 51.2046 38.2022 51.1255 38.6026C51.0464 39.003 50.8517 39.411 50.5843 39.7368C50.4518 39.8981 50.3055 40.0343 50.1536 40.1378C50.0018 40.2412 49.8474 40.3098 49.6993 40.3397C49.5511 40.3695 49.4122 40.36 49.2903 40.3117C49.1685 40.2634 49.0661 40.1772 48.9891 40.0582C48.8335 39.8177 48.7906 39.4577 48.8697 39.0573C48.9488 38.6569 49.1435 38.249 49.4109 37.9232C49.5629 37.7382 49.7328 37.5864 49.9081 37.4792C50.0833 37.3721 50.2593 37.3122 50.423 37.3043L50.4229 37.3043Z" fill="white"/>
<g clip-path="url(#clip0_3_25)">
<path d="M58.5062 21.2684C58.0745 21.277 57.7173 20.9253 57.7085 20.4826L57.4527 7.6608C57.4439 7.21829 57.7867 6.85246 58.2184 6.84384C58.6502 6.83523 59.0073 7.1871 59.0161 7.62961L59.2719 20.4514C59.2807 20.8941 58.938 21.2598 58.5062 21.2684Z" fill="white"/>
<path d="M64.6318 14.7327L52.1247 14.9822C51.6931 14.9909 51.3359 14.6391 51.327 14.1965C51.3182 13.754 51.6611 13.3881 52.0927 13.3795L64.5998 13.13C65.0316 13.1214 65.3887 13.4733 65.3975 13.9158C65.4063 14.3584 65.0636 14.7241 64.6318 14.7327Z" fill="white"/>
</g>
<defs>
<clipPath id="clip0_3_25">
<rect width="17" height="17" fill="white" transform="translate(48 7)"/>
</clipPath>
</defs>
</svg>
