<svg width="128" height="128" viewBox="0 0 128 128" fill="none" xmlns="http://www.w3.org/2000/svg">
<rect width="128" height="128" rx="10" fill="#523293"/>
<path d="M42.2024 25.2344L23.0818 39.6171L40.0636 44.4369L59.3734 28.6023L42.2024 25.2344ZM62.2239 30.3455L41.736 46.7128L51.1973 69.7763L52.6751 68.4244L53.3654 65.6244C52.8541 65.3038 52.4109 64.7745 52.1075 64.1223C51.804 63.4702 51.6581 62.7332 51.6933 62.0308C51.728 61.3488 51.9315 60.7378 52.2729 60.2912C52.6142 59.8446 53.0744 59.5871 53.5831 59.5581C53.7934 59.5461 54.0086 59.5734 54.2229 59.6393C54.4112 59.6982 54.5972 59.7864 54.777 59.902L56.0726 54.6472C56.0884 54.5842 56.1079 54.5222 56.1312 54.4615C56.1344 54.4539 56.1376 54.4463 56.141 54.4386C56.1572 54.397 56.1753 54.3561 56.1949 54.3161C56.2 54.3069 56.2051 54.2977 56.2103 54.2886C56.2298 54.2504 56.2508 54.213 56.2733 54.1765C56.3016 54.1316 56.3322 54.0882 56.3649 54.0464C56.3686 54.042 56.3724 54.0375 56.3762 54.0331C56.4056 53.996 56.4367 53.9602 56.4693 53.9258C56.505 53.8882 56.5426 53.8524 56.5818 53.8184C56.582 53.8183 56.5822 53.8182 56.5825 53.818C56.6084 53.7964 56.6351 53.7757 56.6623 53.7558C56.6775 53.7435 56.6929 53.7316 56.7085 53.7199C56.7371 53.7006 56.7662 53.6823 56.7959 53.6649C56.8114 53.6551 56.8271 53.6455 56.843 53.6361C56.8682 53.6226 56.8938 53.6098 56.9198 53.5977C56.9416 53.5862 56.9638 53.5753 56.9861 53.5648C57.0114 53.5547 57.0369 53.5452 57.0626 53.5363C57.0863 53.5268 57.1102 53.5179 57.1344 53.5095C57.1578 53.5026 57.1814 53.4962 57.2052 53.4904C57.2325 53.4823 57.26 53.475 57.2876 53.4685C57.3174 53.4629 57.3473 53.4581 57.3773 53.4543C57.3989 53.4504 57.4206 53.447 57.4423 53.4441C57.4429 53.4441 57.4435 53.4441 57.4441 53.4441C57.4447 53.4439 57.4452 53.4437 57.4458 53.4435L63.3615 52.8152C63.4871 52.3034 63.7189 51.8693 64.0329 51.558C64.3469 51.2468 64.7316 51.0697 65.1469 51.0452C65.3574 51.0332 65.5727 51.0605 65.7871 51.1264C66.3654 51.3058 66.909 51.7571 67.3157 52.3953L69.6104 52.1518L62.2241 30.3448L62.2239 30.3455ZM42.0656 32.0992C42.8116 32.0998 43.4468 32.2498 43.8634 32.5238C44.2801 32.7978 44.4526 33.1789 44.3518 33.6024C44.2359 34.0892 43.7679 34.595 43.0508 35.0085C42.3336 35.422 41.426 35.7093 40.5277 35.8072C40.0828 35.8557 39.6536 35.8563 39.2645 35.8088C38.8755 35.7614 38.5342 35.6668 38.2602 35.5307C37.9862 35.3945 37.7849 35.2193 37.6677 35.0151C37.5505 34.811 37.5197 34.5818 37.5772 34.3407C37.6345 34.0997 37.7788 33.8514 38.002 33.6101C38.2252 33.3688 38.5228 33.1392 38.8779 32.9345C39.233 32.7297 39.6386 32.5537 40.0716 32.4167C40.5046 32.2796 40.9564 32.1841 41.4013 32.1355C41.6272 32.111 41.8496 32.0989 42.0652 32.0992L42.0656 32.0992ZM59.8125 35.9142C60.0228 35.9022 60.238 35.9295 60.4523 35.9953C61.081 36.1884 61.6672 36.7022 62.082 37.4236C62.4967 38.1451 62.7061 39.0151 62.664 39.8424C62.6431 40.2521 62.5612 40.6389 62.4227 40.9808C62.2843 41.3226 62.0922 41.6129 61.8573 41.835C61.6224 42.057 61.3493 42.2065 61.0537 42.2749C60.7581 42.3434 60.4457 42.3294 60.1344 42.2337C59.823 42.1382 59.5189 41.9629 59.2392 41.7179C58.9595 41.4728 58.7099 41.1628 58.5045 40.8056C58.2991 40.4484 58.1419 40.0509 58.042 39.6358C57.9421 39.2208 57.9014 38.7963 57.9223 38.3867C57.957 37.7047 58.1606 37.0937 58.502 36.6471C58.8433 36.2006 59.3037 35.9431 59.8125 35.9142ZM22.3483 42.7255L31.0313 62.7933L47.7811 69.6193L39.2348 47.5186L22.3483 42.7253L22.3483 42.7255ZM48.4726 45.2927C48.683 45.2806 48.8983 45.3078 49.1127 45.3735C49.7414 45.5667 50.3275 46.0805 50.7422 46.802C51.1569 47.5234 51.3662 48.3934 51.3241 49.2206C51.3032 49.6303 51.2213 50.0171 51.0829 50.359C50.9445 50.7009 50.7523 50.9911 50.5174 51.2132C50.2826 51.4353 50.0095 51.5848 49.7139 51.6532C49.4183 51.7217 49.1059 51.7077 48.7946 51.6121C48.1659 51.4191 47.5797 50.9053 47.1649 50.1839C46.7502 49.4624 46.5408 48.5923 46.5829 47.7651C46.6176 47.0832 46.8212 46.4722 47.1625 46.0257C47.5038 45.5791 47.9639 45.3218 48.4726 45.2927ZM35.2789 47.8662C35.7152 47.8335 36.268 48.0828 36.83 48.5657C37.3919 49.0485 37.9229 49.7306 38.32 50.4795C38.5303 50.8761 38.697 51.2802 38.8105 51.6685C38.924 52.0569 38.9821 52.422 38.9815 52.7429C38.981 53.0638 38.9217 53.3343 38.8071 53.539C38.6924 53.7437 38.5248 53.8784 38.3136 53.9357C37.887 54.051 37.3093 53.8435 36.7074 53.3586C36.1055 52.8738 35.5288 52.1514 35.1041 51.3504C34.6796 50.5496 34.4418 49.7358 34.443 49.0878C34.4442 48.4399 34.6842 48.0109 35.1104 47.8951C35.164 47.8804 35.2202 47.8707 35.2789 47.8662ZM81.8398 54.0637L62.117 56.1582L82.447 69.9266L102.408 66.5185L81.8398 54.0632L81.8398 54.0637ZM30.8433 56.7999C31.2797 56.767 31.8325 57.0162 32.3945 57.4991C32.9566 57.982 33.4877 58.6642 33.8848 59.4132C34.3095 60.2142 34.5475 61.0283 34.5463 61.6764C34.5451 62.3245 34.3048 62.7536 33.8784 62.8692C33.4519 62.9846 32.8741 62.7771 32.2722 62.2923C31.6703 61.8075 31.0936 61.0851 30.6689 60.2841C30.2443 59.4831 30.0064 58.6692 30.0076 58.0211C30.0088 57.3731 30.249 56.9441 30.6753 56.8284C30.729 56.814 30.7853 56.8045 30.844 56.8002L30.8433 56.7999ZM58.6066 57.6284L51.8282 85.1126L72.5536 102.337L80.2703 72.3005L58.6066 57.6288L58.6066 57.6284ZM81.0256 59.1594C81.5726 59.1586 82.1762 59.2291 82.7839 59.3647C83.3916 59.5003 83.9851 59.697 84.513 59.9377C84.9394 60.1321 85.3135 60.351 85.6141 60.5818C85.9148 60.8125 86.1359 61.0507 86.2651 61.2827C86.3942 61.5148 86.4288 61.736 86.3668 61.934C86.3048 62.1319 86.1474 62.3026 85.9038 62.4362C85.6601 62.57 85.3349 62.6641 84.9467 62.7133C84.5584 62.7624 84.1147 62.7656 83.641 62.7227C83.1672 62.6798 82.6726 62.5917 82.1855 62.4632C81.6983 62.3348 81.2282 62.1687 80.8018 61.9743C79.9408 61.5817 79.3105 61.0979 79.0496 60.6293C78.7887 60.1607 78.9185 59.7458 79.4106 59.4757C79.7845 59.2706 80.3474 59.1604 81.0254 59.1595L81.0256 59.1594ZM104.606 69.3809L83.3656 73.0075L75.702 102.838L96.0861 96.7938L104.606 69.3809ZM72.6024 71.9388C72.8513 71.9341 73.1037 71.9853 73.3526 72.091C73.7143 72.2447 74.0628 72.511 74.3781 72.8745C74.6935 73.238 74.9696 73.6918 75.1906 74.2098C75.4116 74.7278 75.5733 75.2999 75.6663 75.8935C75.7594 76.4871 75.782 77.0905 75.7329 77.6694C75.6337 78.8382 75.2484 79.8359 74.6618 80.4428C74.0752 81.0498 73.3354 81.2163 72.605 80.9058C72.2433 80.7521 71.8948 80.4859 71.5795 80.1224C71.2641 79.7589 70.988 79.3051 70.767 78.7871C70.5459 78.2691 70.3842 77.697 70.2912 77.1034C70.1981 76.5097 70.1755 75.9063 70.2246 75.3274C70.3064 74.364 70.5832 73.5111 71.0127 72.8991C71.4421 72.2871 72.0005 71.9498 72.6024 71.9388ZM99.7989 73.4568C100.374 73.4282 100.855 73.6767 101.166 74.1619C101.53 74.7322 101.631 75.586 101.446 76.5356C101.26 77.4851 100.804 78.4526 100.177 79.2253C99.5505 79.9978 98.8046 80.5122 98.1036 80.6552C97.4026 80.7983 96.804 80.5583 96.4394 79.9881C96.0747 79.4179 95.974 78.5641 96.1594 77.6146C96.3447 76.6651 96.8009 75.6976 97.4276 74.925C97.7837 74.4862 98.1819 74.1263 98.5925 73.8721C99.0032 73.6179 99.4156 73.476 99.7991 73.457L99.7989 73.4568ZM87.7297 75.5905C88.3043 75.5619 88.7859 75.8104 89.0963 76.2956C89.4609 76.8659 89.5616 77.7197 89.3762 78.6693C89.1909 79.6188 88.7346 80.5863 88.1078 81.3589C87.481 82.1315 86.7351 82.6458 86.0341 82.7889C85.3331 82.9319 84.7345 82.6919 84.3699 82.1216C84.0054 81.5513 83.9047 80.6975 84.0901 79.748C84.2755 78.7985 84.7318 77.831 85.3586 77.0585C85.7146 76.6197 86.1127 76.2598 86.5233 76.0056C86.9339 75.7514 87.3464 75.6095 87.7299 75.5905L87.7297 75.5905ZM57.112 78.5649C57.361 78.5603 57.6135 78.6116 57.8626 78.7175C58.2242 78.8712 58.5727 79.1375 58.888 79.501C59.2033 79.8646 59.4794 80.3183 59.7004 80.8363C59.9214 81.3543 60.083 81.9264 60.1761 82.52C60.2691 83.1136 60.2917 83.717 60.2426 84.2958C60.1935 84.8746 60.0736 85.4175 59.8899 85.8934C59.7061 86.3693 59.462 86.769 59.1715 87.0695C58.8811 87.3701 58.5499 87.5657 58.197 87.6451C57.844 87.7245 57.4762 87.6862 57.1146 87.5324C56.7529 87.3787 56.4044 87.1125 56.0891 86.749C55.7737 86.3854 55.4976 85.9317 55.2766 85.4137C55.0556 84.8957 54.894 84.3235 54.8009 83.7299C54.7079 83.1363 54.6852 82.5329 54.7344 81.9541C54.8161 80.9906 55.0928 80.1376 55.5222 79.5255C55.9515 78.9134 56.5099 78.5759 57.1118 78.5647L57.112 78.5649ZM94.7372 88.6062C95.3116 88.5777 95.7931 88.8262 96.1034 89.3113C96.4681 89.8815 96.5688 90.7353 96.3835 91.6848C96.1982 92.6343 95.742 93.6018 95.1153 94.3745C94.4885 95.147 93.7425 95.6613 93.0416 95.8043C92.3406 95.9473 91.7419 95.7073 91.3774 95.137C91.0128 94.5667 90.9121 93.713 91.0974 92.7635C91.2827 91.8139 91.7389 90.8465 92.3657 90.0738C92.7217 89.635 93.1199 89.2751 93.5305 89.0209C93.9412 88.7667 94.3537 88.6248 94.7372 88.6059L94.7372 88.6062ZM82.4106 92.3102C82.9851 92.2817 83.4666 92.5304 83.7769 93.0156C84.1415 93.5858 84.2423 94.4396 84.057 95.3891C83.8717 96.3386 83.4155 97.3061 82.7888 98.0788C82.4784 98.4613 82.1355 98.7844 81.7797 99.0298C81.4238 99.2751 81.062 99.4378 80.7149 99.5085C80.3678 99.5793 80.0422 99.5568 79.7567 99.4422C79.4712 99.3277 79.2313 99.1234 79.0508 98.8409C78.6862 98.2707 78.5856 97.4169 78.7709 96.4674C78.9563 95.5178 79.4126 94.5504 80.0393 93.7778C80.3953 93.339 80.7935 92.9791 81.2042 92.725C81.6148 92.4708 82.0273 92.3289 82.4108 92.31L82.4106 92.3102Z" fill="white"/>
</svg>
